# xmcd CD database file
#
# Track frame offsets:
#	150
#	10661
#	24027
#	39755
#	51834
#	65291
#	82942
#	162899
#	174540
#	186775
#	201840
#	217351
#	230143
#	243599
#	256090
#
# Disc length: 3624 seconds
#
# Revision: 0
# Processed by: cddbd v1.5.2PL0 Copyright (c) Steve Scherf et al.
# Submitted via: CDex 1.70beta2
#
DISCID=be0e260f
DTITLE=Chet Baker - This Is Gold CD 1
DYEAR=1900
DGENRE=Jazz
TTITLE0=My Funny Valentine
TTITLE1=Love Walked In
TTITLE2=You Don't Know What Love Is
TTITLE3=Look For The Silver Lining
TTITLE4=There Will Never Be Another You
TTITLE5=Stella By Starlight
TTITLE6=All The Things You Are
TTITLE7=Little Duet For Zoot And Chet
TTITLE8=Happy Little Sunbeam
TTITLE9=I Fall In Love Too Easily
TTITLE10=Moonlight Becomes You
TTITLE11=The Thrill Is Gone
TTITLE12=I Get Along Without You Very Well
TTITLE13=Time After Time
TTITLE14=Isn't It Romantic?
EXTD=
EXTT0=
EXTT1=
EXTT2=
EXTT3=
EXTT4=
EXTT5=
EXTT6=
EXTT7=
EXTT8=
EXTT9=
EXTT10=
EXTT11=
EXTT12=
EXTT13=
EXTT14=
PLAYORDER=
